# xmcd
#
# Track frame offsets: 
#        150
#        11780
#        22652
#        37110
#        48565
#        59325
#        70680
#        81077
#        92555
#        103712
#
# Disc length: 1548 seconds
#
# Revision: 2
# Processed by: cddbd v1.5.1PL0 Copyright (c) Steve Scherf et al.
# Submitted via: ExactAudioCopy v0.95b3
#
DISCID=78060a0a
DTITLE=Patsy Cline - Loved and Lost Again
DYEAR=1993
DGENRE=Country
TTITLE0=I've Loved and Lost Again
TTITLE1=I Cried All the Way to the Alter
TTITLE2=Then You'll Know
TTITLE3=The Heart You Break May Be Your Own
TTITLE4=Stop, Look and Listen
TTITLE5=Hungry for Love
TTITLE6=Too Many Secrets
TTITLE7=Lonely Street
TTITLE8=I Can't Forget
TTITLE9=Fingerprints
EXTD=
EXTT0=Patsy Cline
EXTT1=Patsy Cline
EXTT2=Patsy Cline
EXTT3=Patsy Cline
EXTT4=Patsy Cline
EXTT5=Patsy Cline
EXTT6=Patsy Cline
EXTT7=Patsy Cline
EXTT8=Patsy Cline
EXTT9=Patsy Cline
PLAYORDER=
